<?xml version="1.0" encoding="iso-8859-1"?>
<!-- Uploaded to: SVG Repo, www.svgrepo.com, Generator: SVG Repo Mixer Tools -->
<svg fill="#000000" height="20px" width="20px" version="1.1" id="Layer_1" xmlns="http://www.w3.org/2000/svg" xmlns:xlink="http://www.w3.org/1999/xlink" 
	 viewBox="0 0 511.991 511.991" xml:space="preserve">
<g>
	<g>
		<path d="M443.729,68.258c-124.51,0-180.369-64.239-181.18-65.212c-1.621-1.929-4.019-3.038-6.536-3.046h-0.026
			c-2.517,0-4.907,1.118-6.528,3.046c-0.555,0.649-56.371,65.212-181.197,65.212c-4.719,0-8.533,3.823-8.533,8.533V239.65
			c0,89.028,40.03,173.636,107.059,226.312c27.025,21.248,56.226,36.608,86.784,45.67c0.794,0.239,1.604,0.358,2.423,0.358
			c0.819,0,1.638-0.119,2.423-0.358c30.558-9.062,59.759-24.422,86.784-45.67c67.038-52.676,107.059-137.284,107.059-226.312V76.791
			C452.262,72.081,448.448,68.258,443.729,68.258z M159.629,275.558c1.604,1.596,2.5,3.772,2.5,6.033v42.667
			c0,9.412,7.663,17.067,17.067,17.067c4.719,0,8.533,3.823,8.533,8.533s-3.814,8.533-8.533,8.533
			c-18.825,0-34.133-15.309-34.133-34.133v-39.134l-23.1-23.1c-3.337-3.337-3.337-8.73,0-12.066l23.1-23.1v-39.134
			c0-18.825,15.309-34.133,34.133-34.133c4.719,0,8.533,3.823,8.533,8.533c0,4.71-3.814,8.533-8.533,8.533
			c-9.404,0-17.067,7.654-17.067,17.067v42.667c0,2.261-0.896,4.437-2.5,6.033l-19.567,19.567L159.629,275.558z M298.15,165.043
			l-68.267,187.733c-1.263,3.465-4.54,5.615-8.021,5.615c-0.964,0-1.946-0.162-2.918-0.512c-4.42-1.613-6.716-6.511-5.094-10.94
			l68.267-187.733c1.604-4.42,6.485-6.699,10.931-5.103C297.468,155.716,299.763,160.614,298.15,165.043z M390.089,262.033
			l-23.159,23.1v39.125c0,18.825-15.309,34.133-34.133,34.133c-4.719,0-8.533-3.823-8.533-8.533s3.814-8.533,8.533-8.533
			c9.412,0,17.067-7.654,17.067-17.067v-42.667c0-2.27,0.904-4.446,2.509-6.042l19.61-19.558l-19.61-19.558
			c-1.604-1.604-2.509-3.772-2.509-6.042v-42.667c0-9.412-7.654-17.067-17.067-17.067c-4.719,0-8.533-3.823-8.533-8.533
			c0-4.71,3.814-8.533,8.533-8.533c18.825,0,34.133,15.309,34.133,34.133v39.125l23.159,23.1c1.604,1.596,2.509,3.772,2.509,6.042
			C392.597,258.261,391.693,260.437,390.089,262.033z"/>
	</g>
</g>
</svg>